<?xml version="1.0" standalone="no"?>
<!DOCTYPE svg PUBLIC "-//W3C//DTD SVG 20010904//EN"
 "http://www.w3.org/TR/2001/REC-SVG-20010904/DTD/svg10.dtd">
<svg version="1.0" xmlns="http://www.w3.org/2000/svg"
 width="1024.000000pt" height="1024.000000pt" viewBox="0 0 1024.000000 1024.000000"
 preserveAspectRatio="xMidYMid meet">

<g transform="translate(0.000000,1024.000000) scale(0.100000,-0.100000)"
fill="#f3f3f3" stroke="none">
<path d="M0 5120 l0 -5120 5120 0 5120 0 0 5120 0 5120 -5120 0 -5120 0 0
-5120z m5211 4277 c58 -39 73 -94 45 -162 -24 -57 -117 -86 -176 -55 -53 28
-76 120 -45 180 31 60 115 78 176 37z m-720 -222 c19 -77 63 -131 132 -165 37
-18 54 -30 42 -31 -60 -3 -154 -95 -172 -168 -9 -36 -33 -55 -33 -26 0 9 -10
39 -22 66 -22 52 -88 114 -135 125 -13 4 -23 9 -23 13 0 3 26 17 57 30 62 28
101 76 123 156 7 25 14 45 16 45 2 0 9 -20 15 -45z m1374 -100 c26 -35 90 -75
120 -75 28 0 15 -15 -30 -33 -56 -24 -109 -81 -132 -146 -10 -28 -20 -51 -23
-51 -3 0 -14 25 -25 56 -10 31 -31 69 -45 84 -28 30 -99 70 -127 71 -10 0 2 9
27 20 65 29 107 65 130 109 11 22 20 44 20 49 0 5 5 22 11 38 11 28 11 27 29
-30 10 -31 30 -73 45 -92z m-697 26 c7 -4 33 -66 56 -137 56 -166 92 -246 157
-340 65 -94 144 -165 229 -207 59 -29 73 -32 155 -32 167 1 326 78 548 267
146 123 161 132 186 116 12 -7 21 -17 21 -22 0 -5 -36 -75 -79 -155 -99 -183
-172 -347 -232 -521 -53 -157 -28 -145 -225 -107 -73 15 -179 31 -235 37 -57
5 -129 13 -159 16 -399 40 -1064 8 -1378 -66 -46 -11 -87 -18 -92 -15 -4 3
-11 17 -15 32 -23 94 -123 331 -227 541 -115 232 -120 243 -102 257 10 8 24
15 29 15 6 0 55 -38 110 -85 200 -171 371 -275 504 -305 265 -61 509 155 636
566 43 137 70 173 113 145z m-1415 -103 c24 -12 57 -67 57 -96 0 -12 -6 -37
-14 -55 -35 -85 -161 -99 -207 -23 -66 109 50 233 164 174z m2934 -23 c33 -33
35 -39 31 -86 -11 -109 -136 -157 -202 -78 -38 44 -43 90 -16 137 27 47 50 60
109 61 36 1 48 -4 78 -34z m-3052 -784 c49 -82 53 -101 29 -125 -20 -21 -29
-20 -51 4 -26 27 -83 144 -83 169 0 22 27 42 47 34 8 -3 34 -40 58 -82z m3096
58 c16 -30 -77 -199 -110 -199 -4 0 -16 9 -26 20 -18 20 -18 22 12 83 56 114
97 146 124 96z m-3484 -136 c52 -65 114 -149 147 -201 26 -41 26 -45 11 -68
-33 -51 -51 -33 -222 220 -45 66 -44 96 3 96 14 0 36 -17 61 -47z m3863 27
c14 -26 7 -39 -100 -183 -91 -124 -119 -149 -145 -127 -30 25 -15 58 86 194
80 107 106 136 125 136 13 0 28 -9 34 -20z m-1503 -215 c177 -17 454 -59 495
-76 15 -6 30 -20 33 -30 10 -30 -4 -77 -27 -93 -22 -15 -14 -16 -308 9 -96 7
-233 17 -305 21 -182 10 -696 6 -845 -6 -69 -5 -159 -12 -200 -15 -41 -4 -82
-8 -90 -10 -8 -2 -54 -6 -102 -10 l-87 -6 -16 30 c-8 17 -15 44 -15 61 0 26 6
33 36 46 77 32 464 83 749 98 131 7 523 -4 682 -19z m-2619 -62 c30 -26 180
-200 192 -223 15 -27 -4 -60 -34 -60 -16 0 -52 33 -129 120 -59 66 -107 127
-107 134 0 47 40 61 78 29z m4352 -2 c5 -11 10 -25 10 -30 0 -11 -123 -153
-190 -220 -34 -34 -61 -39 -80 -16 -23 27 4 68 141 213 70 75 100 88 119 53z
m-4501 -374 c78 -70 141 -134 141 -142 0 -17 -27 -45 -43 -45 -16 0 -284 235
-298 261 -8 16 -7 25 7 40 10 11 26 19 35 17 10 -2 81 -61 158 -131z m4769
113 c9 -15 10 -26 2 -40 -11 -21 -227 -221 -266 -247 -23 -14 -26 -14 -44 2
-11 10 -20 25 -20 34 0 28 267 271 298 271 9 0 23 -9 30 -20z m-2998 -161
c163 -20 331 -76 455 -153 l69 -43 36 25 c94 64 275 137 405 163 109 22 341
16 440 -10 323 -86 549 -334 616 -676 17 -89 17 -318 0 -413 -10 -55 -19 -79
-39 -98 -71 -68 -243 -123 -408 -131 -210 -11 -321 21 -575 165 -79 45 -171
91 -204 102 -84 30 -180 37 -228 17 -33 -14 -41 -14 -72 -1 -98 41 -234 3
-470 -131 -216 -123 -348 -161 -530 -151 -210 12 -419 92 -445 171 -20 64 -33
212 -26 320 11 193 55 334 151 481 180 277 475 407 825 363z m-2008 -275 c183
-123 185 -126 170 -160 -10 -20 -18 -25 -35 -22 -32 7 -314 194 -327 218 -8
16 -6 24 10 40 11 11 24 20 30 20 5 0 73 -43 152 -96z m5245 60 c8 -22 -21
-49 -145 -133 -161 -109 -169 -113 -191 -106 -29 9 -36 42 -14 67 19 22 267
191 293 200 19 7 49 -9 57 -28z m-4519 -96 c7 -7 12 -22 12 -35 0 -29 -36 -46
-62 -29 -33 20 -16 76 22 76 9 0 21 -5 28 -12z m3670 0 c33 -33 -8 -90 -48
-68 -20 11 -25 35 -14 64 7 19 45 21 62 4z m198 -213 c16 -24 15 -27 -1 -45
-25 -28 -100 -70 -123 -70 -26 0 -45 25 -37 49 6 20 109 91 132 91 7 0 20 -11
29 -25z m-4053 -1 c39 -20 87 -64 87 -79 0 -7 -8 -19 -18 -29 -18 -15 -22 -15
-68 10 -83 44 -109 75 -82 102 16 16 43 15 81 -4z m-546 -202 c27 -25 27 -49
1 -66 -15 -9 -49 5 -184 74 -175 90 -198 107 -188 134 16 43 44 37 198 -42 81
-43 159 -87 173 -100z m5430 149 c21 -33 -15 -61 -186 -146 -130 -64 -165 -78
-179 -69 -24 15 -26 47 -5 66 33 29 307 168 333 168 14 0 30 -8 37 -19z
m-4950 -287 c74 -20 100 -42 83 -73 -14 -27 -46 -27 -129 -1 -65 21 -91 35
-91 51 0 18 41 50 58 45 9 -2 45 -12 79 -22z m4243 -3 c21 -41 5 -54 -89 -77
-79 -19 -108 -18 -121 5 -19 37 1 56 90 80 61 16 108 13 120 -8z m-5000 -153
c91 -34 173 -68 183 -76 41 -35 5 -79 -52 -62 -77 22 -318 114 -333 128 -30
26 -16 72 22 72 8 0 89 -28 180 -62z m5824 49 c11 -8 17 -23 14 -38 -3 -21
-21 -31 -168 -86 -172 -65 -210 -73 -230 -48 -23 28 -2 53 68 79 37 14 112 43
167 65 113 44 124 46 149 28z m-3071 -205 c36 -40 48 -239 17 -277 -10 -12
-40 -15 -145 -15 -168 0 -170 2 -162 120 6 96 28 136 89 168 58 29 176 31 201
4z m311 4 c71 -30 106 -98 106 -206 0 -90 -1 -90 -155 -90 -170 0 -169 -1
-163 153 4 143 14 157 109 157 38 0 85 -6 103 -14z m-2272 -56 c53 -15 62 -63
14 -76 -34 -8 -167 4 -182 17 -17 14 -18 41 -2 57 15 15 119 16 170 2z m4216
-2 c16 -16 15 -43 0 -56 -7 -5 -53 -12 -101 -15 -68 -3 -91 -1 -103 10 -20 20
-17 39 8 57 28 20 178 22 196 4z m-2610 -146 c-2 -50 -8 -76 -18 -82 -22 -14
-204 -12 -218 2 -19 19 -14 53 11 75 32 30 106 65 119 57 7 -5 8 -3 3 6 -6 10
-4 12 11 6 10 -4 15 -4 11 0 -4 5 12 17 35 28 43 21 43 21 46 1 2 -11 2 -52 0
-93z m962 51 c101 -53 120 -69 120 -99 0 -34 -28 -44 -123 -44 -108 0 -117 8
-124 120 l-6 82 24 -7 c13 -4 62 -28 109 -52z m-1965 -9 c28 -21 215 -79 315
-99 187 -36 238 -48 304 -76 86 -36 141 -75 279 -198 138 -122 198 -162 300
-196 63 -22 107 -29 194 -33 221 -9 345 41 543 221 196 176 267 212 528 266
163 34 293 71 355 103 21 10 42 18 47 16 13 -4 -54 -131 -139 -268 -158 -251
-193 -363 -227 -715 -24 -250 -53 -481 -75 -590 -79 -400 -274 -748 -501 -899
-70 -47 -109 -55 -137 -27 -26 26 -26 33 -1 112 67 218 102 443 101 654 0 288
-82 590 -196 731 l-34 41 64 22 c75 27 226 123 270 172 42 48 155 200 155 210
0 4 6 14 13 21 7 7 33 40 58 73 53 69 113 126 182 173 54 37 59 46 20 31 -101
-38 -189 -110 -338 -278 -140 -157 -220 -226 -319 -275 -109 -54 -211 -77
-342 -77 -139 0 -222 18 -339 75 -118 58 -174 105 -307 258 -60 70 -140 155
-176 189 -69 63 -171 123 -200 117 -11 -2 -4 -9 20 -21 76 -36 188 -157 298
-322 18 -27 56 -76 83 -107 27 -32 46 -58 42 -58 -4 0 15 -18 44 -41 28 -22
48 -45 45 -50 -3 -5 -2 -8 3 -7 14 4 53 -13 53 -23 0 -5 3 -8 8 -7 15 3 61
-25 55 -35 -3 -6 -2 -7 4 -4 8 5 78 -18 121 -39 1 -1 -22 -40 -51 -87 -111
-176 -159 -387 -160 -697 -1 -222 19 -364 79 -572 40 -137 42 -173 13 -188
-33 -18 -74 -2 -157 59 -158 118 -308 337 -390 572 -42 118 -98 351 -116 479
-9 58 -25 204 -36 325 -41 440 -68 534 -222 781 -114 184 -178 305 -160 304 4
0 16 -7 27 -16z m-1489 -99 c107 -25 206 -51 219 -57 28 -13 32 -39 10 -62
-18 -17 -22 -17 -205 24 -69 16 -147 31 -173 35 -46 7 -97 37 -97 56 0 10 36
49 46 49 3 0 93 -20 200 -45z m6064 25 c22 -22 18 -45 -11 -60 -29 -16 -408
-91 -443 -88 -27 3 -31 7 -31 33 0 28 4 31 55 47 65 20 355 85 388 87 12 0 31
-8 42 -19z m-5155 -200 c18 -15 19 -42 3 -58 -15 -15 -171 -16 -199 -2 -26 14
-24 45 4 65 17 13 38 16 100 12 43 -3 84 -11 92 -17z m4179 10 c32 -12 36 -54
7 -70 -21 -11 -159 -14 -185 -4 -25 10 -21 63 7 74 30 12 140 12 171 0z
m-3752 -396 c22 -7 34 -50 19 -68 -8 -9 -43 -15 -109 -18 -84 -3 -104 -8 -152
-33 -65 -36 -168 -131 -270 -252 -204 -242 -431 -351 -840 -403 -47 -6 -98
-12 -115 -15 -16 -2 -68 -9 -115 -15 -319 -42 -546 -122 -659 -231 -57 -55
-116 -147 -130 -202 -11 -46 -30 -62 -61 -52 -29 9 -31 45 -6 117 47 134 157
255 299 329 158 82 272 109 701 164 148 20 299 42 334 50 127 30 291 109 362
175 32 30 32 31 14 48 -11 9 -28 27 -38 40 -19 22 -19 22 3 22 12 0 36 -13 52
-29 l29 -30 87 92 c176 186 232 236 306 272 100 49 206 63 289 39z m3363 -10
c101 -27 178 -89 376 -303 l87 -93 37 35 c21 20 44 33 52 30 15 -6 3 -25 -40
-65 -11 -9 -16 -22 -12 -28 9 -14 139 -102 190 -128 82 -41 234 -81 375 -97
25 -2 108 -12 185 -20 208 -24 422 -61 516 -91 212 -66 371 -190 449 -348 52
-104 51 -176 -2 -176 -13 0 -25 14 -39 48 -66 158 -152 250 -299 319 -139 64
-442 125 -845 169 -142 15 -349 82 -464 149 -70 41 -203 156 -256 221 -22 27
-82 90 -132 141 -122 121 -191 156 -313 162 -92 3 -110 11 -110 46 0 50 118
64 245 29z m-4167 -18 c105 -53 183 -184 136 -230 -28 -28 -51 -19 -80 32 -50
86 -108 124 -194 124 -58 0 -105 -21 -157 -71 -23 -23 -47 -41 -52 -41 -12 0
-41 29 -41 41 0 44 71 128 129 151 83 34 185 31 259 -6z m5018 2 c62 -31 106
-86 108 -134 1 -24 -5 -40 -16 -47 -15 -10 -25 -4 -61 31 -23 23 -48 42 -55
42 -7 0 -12 4 -12 9 0 15 -101 28 -144 19 -56 -12 -110 -55 -143 -113 -31 -53
-65 -67 -86 -34 -24 38 32 155 96 201 87 62 219 73 313 26z m-4175 -284 c135
-91 145 -274 22 -398 -79 -80 -223 -111 -343 -74 -114 35 -273 156 -323 245
l-17 31 44 -2 c36 -1 53 -10 103 -54 34 -29 63 -52 65 -52 3 0 8 25 11 55 11
112 94 223 198 264 79 31 180 25 240 -15z m3324 9 c94 -49 185 -185 185 -278
0 -19 4 -35 8 -35 5 0 35 24 68 53 77 69 106 82 128 58 15 -17 14 -21 -14 -57
-118 -152 -305 -252 -447 -238 -124 12 -243 99 -278 203 -40 122 12 245 130
302 52 26 162 21 220 -8z m-3675 -843 c129 -51 260 -177 334 -320 49 -94 80
-188 70 -213 -8 -21 -43 -32 -56 -19 -6 6 -27 51 -47 99 -68 165 -184 297
-311 357 -53 25 -81 31 -155 34 -49 2 -96 9 -102 14 -20 16 -15 45 10 63 32
24 182 15 257 -15z m4040 10 c25 -25 25 -33 3 -52 -12 -10 -39 -16 -79 -16
-69 0 -149 -21 -202 -54 -97 -59 -218 -208 -258 -316 -23 -63 -36 -76 -68 -68
-35 9 -35 49 1 130 105 242 302 394 511 395 59 1 76 -3 92 -19z m-4262 -369
c3 -8 7 -9 11 -3 8 14 147 -31 143 -46 -1 -7 2 -12 8 -12 5 0 10 -5 10 -10 0
-7 -6 -7 -19 0 -11 5 -27 10 -35 10 -19 0 -21 -26 -3 -33 7 -3 5 -6 -5 -6 -11
-1 -15 -6 -11 -16 5 -14 8 -14 27 2 l21 18 -19 -23 c-11 -12 -21 -20 -24 -17
-3 3 -11 0 -19 -6 -8 -8 -13 -8 -13 -1 0 6 6 13 13 15 7 4 6 6 -5 6 -9 1 -19
7 -21 14 -3 6 -4 -2 -3 -19 2 -17 6 -36 10 -42 5 -8 1 -10 -10 -5 -12 4 -15 3
-10 -5 4 -7 2 -12 -3 -12 -15 0 -14 13 2 29 10 11 9 13 -3 9 -8 -2 -17 -15
-21 -29 -4 -13 -7 -18 -8 -11 -2 19 -19 14 -32 -9 -8 -15 -8 -19 0 -15 6 4 11
2 11 -4 0 -6 11 -4 28 6 l27 16 -25 -20 c-13 -11 -28 -18 -32 -16 -4 3 -8 -1
-8 -8 -1 -9 -4 -9 -13 3 -17 22 -48 32 -41 14 3 -8 11 -13 16 -12 6 1 12 -3
15 -9 2 -6 -8 -10 -26 -9 -17 1 -28 -2 -24 -8 3 -5 -4 -6 -17 -2 -17 5 -21 4
-15 -6 6 -9 2 -11 -13 -7 -12 4 -20 2 -16 -3 5 -8 0 -10 -33 -13 -7 -1 -12 -5
-10 -10 1 -4 -20 -16 -48 -27 -38 -14 -51 -16 -58 -6 -6 8 -7 6 -3 -6 7 -22
-22 -35 -36 -16 -8 11 -9 10 -4 -3 4 -13 -4 -23 -27 -34 -18 -10 -70 -43 -117
-74 -103 -69 -142 -90 -170 -90 -11 0 -20 -5 -20 -11 0 -6 -7 -9 -15 -5 -8 3
-15 0 -15 -5 0 -7 -11 -9 -25 -7 -13 3 -22 1 -19 -3 5 -9 -11 -11 -89 -13 -20
-1 -37 -4 -37 -8 0 -13 -255 -1 -335 16 -210 45 -410 196 -510 387 -54 104
-48 108 66 55 95 -45 202 -66 331 -66 157 0 268 23 532 110 204 66 326 99 466
124 14 2 92 3 174 2 115 -1 150 -4 154 -15z m4673 -9 c53 -12 207 -57 343
-101 278 -91 375 -111 528 -111 151 0 248 20 385 81 29 12 55 20 59 17 10 -11
-42 -115 -89 -176 -132 -170 -303 -271 -522 -307 -86 -14 -285 -17 -285 -4 0
4 -16 6 -35 4 -20 -2 -35 2 -35 8 0 6 -3 7 -7 4 -3 -4 -13 -1 -21 6 -13 9 -14
9 -8 0 9 -17 5 -16 -44 3 -25 10 -37 20 -33 28 4 6 0 6 -9 -2 -13 -10 -19 -10
-32 3 -9 9 -16 14 -16 11 0 -3 -18 4 -40 15 -22 12 -37 26 -33 32 3 6 1 7 -5
3 -13 -8 -52 14 -52 29 0 6 -15 15 -32 21 -19 5 -32 15 -30 22 1 8 -2 11 -7 7
-6 -3 -28 6 -50 20 -29 18 -39 30 -35 42 5 15 4 15 -4 4 -16 -22 -64 1 -55 26
6 16 5 17 -12 3 -17 -14 -18 -13 -12 4 6 16 5 17 -8 6 -13 -11 -14 -10 -9 6 6
16 5 17 -7 7 -19 -18 -27 -16 -39 10 -11 21 -10 21 4 3 9 -11 19 -16 23 -12 8
7 -21 29 -42 32 -5 0 -16 2 -23 2 -8 1 -10 7 -6 15 5 8 2 8 -9 -2 -16 -13 -25
-2 -10 13 11 10 12 37 2 30 -5 -3 -7 -10 -4 -15 4 -5 -1 -9 -10 -9 -12 0 -15
-5 -11 -17 4 -12 0 -10 -10 5 -9 12 -25 22 -35 22 -12 0 -16 5 -13 15 4 10 0
15 -15 15 -12 0 -21 5 -21 11 0 8 -6 7 -17 -2 -15 -13 -15 -12 -2 8 10 17 15
19 21 9 8 -14 68 -20 68 -7 0 5 -14 7 -31 5 -23 -3 -30 0 -26 10 4 10 -3 13
-29 9 -21 -3 -34 0 -34 7 0 6 -4 9 -9 6 -5 -3 -19 2 -32 12 -15 13 -19 21 -11
26 7 4 12 2 12 -4 0 -6 5 -8 10 -5 19 12 10 24 -16 19 -19 -3 -24 -1 -18 8 5
7 9 18 10 23 0 6 2 19 3 30 2 12 5 15 8 7 4 -10 8 -9 19 5 13 17 13 17 14 -2
0 -18 1 -18 16 4 13 17 24 22 46 19 16 -3 31 -1 34 4 10 16 294 2 395 -20z
m-551 -52 c0 -5 -2 -10 -4 -10 -3 0 -8 5 -11 10 -3 6 -1 10 4 10 6 0 11 -4 11
-10z m-426 -195 c47 -8 116 -27 152 -41 l66 -27 39 23 c54 30 97 21 155 -32
61 -57 88 -143 82 -266 -7 -141 -57 -212 -148 -212 -59 0 -81 17 -159 118 -72
95 -132 151 -192 180 -138 67 -305 13 -340 -110 -36 -123 2 -248 108 -360 32
-33 137 -126 233 -207 275 -228 380 -345 440 -489 100 -237 39 -509 -148 -658
-67 -53 -195 -117 -272 -135 -81 -19 -270 -16 -355 6 -208 53 -393 201 -483
385 -34 69 -37 82 -37 165 0 73 4 97 22 130 70 131 230 155 337 52 50 -48 66
-92 66 -185 0 -44 6 -75 21 -104 69 -136 295 -250 431 -218 99 24 147 95 148
217 0 86 -22 152 -81 244 -59 91 -141 173 -336 335 -251 210 -337 311 -401
466 -20 51 -26 85 -30 173 -4 100 -2 118 23 190 31 94 54 133 115 199 134 145
319 200 544 161z m-2669 -10 c202 -43 366 -191 428 -390 29 -94 31 -273 3
-355 -46 -136 -105 -214 -189 -250 -94 -41 -203 -24 -264 42 -78 83 -46 227
59 267 85 32 89 246 8 374 -19 31 -44 52 -81 71 -99 49 -199 28 -290 -63 -127
-128 -216 -358 -249 -646 -49 -434 87 -863 308 -972 51 -25 68 -28 152 -27
150 1 235 39 368 168 65 62 180 195 200 231 10 17 11 17 12 3 0 -35 -42 -236
-72 -341 l-31 -109 -60 -41 c-153 -109 -241 -148 -367 -166 -394 -55 -736 208
-851 657 -87 340 -44 802 102 1094 94 189 250 348 407 416 116 49 278 64 407
37z m2055 -29 c0 -2 -25 -34 -55 -72 -100 -124 -154 -261 -170 -431 -5 -47
-11 -71 -18 -66 -5 3 -7 2 -4 -4 3 -5 -40 -58 -97 -118 -57 -59 -105 -103
-107 -97 -2 5 -42 50 -88 98 l-84 88 307 303 c280 277 316 311 316 299z
m-3057 -45 c-5 -13 -3 -14 8 -3 17 16 36 15 42 -1 3 -8 -1 -14 -9 -14 -7 0
-11 5 -7 10 3 5 -6 2 -19 -7 -25 -16 -39 -13 -34 7 2 7 1 9 -1 4 -3 -4 -8 -5
-12 -3 -4 3 -8 -1 -8 -9 0 -8 4 -12 8 -9 4 2 9 -1 11 -7 3 -9 9 -9 26 0 15 8
22 8 22 1 0 -6 6 -8 13 -4 6 4 9 4 5 -1 -11 -11 -110 -16 -103 -4 4 5 1 9 -4
9 -6 0 -11 -3 -12 -7 0 -5 -2 -16 -4 -27 -3 -14 -1 -16 8 -7 12 12 47 15 47 3
0 -4 -7 -18 -16 -30 -8 -12 -12 -27 -9 -32 3 -5 -5 -15 -19 -21 -14 -7 -23
-16 -19 -22 9 -15 -20 -27 -35 -15 -10 9 -18 6 -35 -12 l-22 -24 23 19 c22 18
23 18 40 0 16 -17 16 -18 0 -12 -10 4 -18 2 -18 -3 0 -5 -8 -11 -17 -13 -13
-3 -12 -5 5 -6 13 0 20 -5 17 -11 -4 -6 -11 -7 -17 -4 -7 5 -9 1 -5 -9 4 -11
2 -14 -9 -10 -10 4 -12 0 -7 -13 5 -13 3 -15 -7 -9 -10 6 -12 4 -7 -9 6 -14 3
-17 -8 -12 -10 3 -13 2 -10 -5 9 -13 -14 -69 -27 -69 -6 0 -8 -7 -4 -15 3 -8
1 -15 -5 -15 -6 0 -8 -4 -4 -9 7 -13 -30 -73 -39 -64 -4 4 -4 0 0 -10 4 -10
-9 -46 -32 -93 -76 -150 -218 -258 -376 -284 -71 -12 -236 -9 -286 6 -22 6
-22 7 11 43 18 20 57 84 86 141 132 258 214 363 393 498 89 67 286 164 386
190 90 23 102 23 95 3z m4370 -35 c157 -59 302 -152 425 -272 101 -100 152
-174 240 -349 33 -66 76 -140 96 -165 46 -58 39 -62 -118 -68 -178 -6 -275 23
-385 117 -68 58 -161 197 -144 215 4 3 2 6 -4 6 -6 0 -16 21 -23 48 -7 26 -17
53 -23 59 -5 7 -7 20 -3 28 3 9 2 14 -3 11 -4 -3 -14 14 -21 37 -7 23 -19 65
-28 92 -8 28 -16 61 -18 73 -1 13 -5 26 -8 29 -3 4 -1 12 6 20 8 10 8 12 -4 8
-11 -4 -21 9 -35 47 -12 29 -24 61 -28 71 -9 23 2 22 78 -7z m-4388 -86 c3 -5
1 -10 -4 -10 -6 0 -11 5 -11 10 0 6 2 10 4 10 3 0 8 -4 11 -10z m3499 -296
c43 -83 151 -191 304 -306 300 -225 443 -403 502 -621 22 -79 30 -210 20 -317
l-5 -55 70 -18 c93 -24 257 -25 350 -2 164 40 339 161 432 299 54 79 64 102
40 93 -7 -2 -48 -12 -91 -22 -73 -16 -81 -16 -112 -1 -19 8 -34 19 -34 24 0
26 32 45 98 57 109 21 191 66 266 145 112 119 149 224 150 432 1 141 8 167 41
154 32 -12 48 -75 49 -196 1 -193 -52 -332 -173 -464 -44 -47 -71 -86 -76
-107 -36 -164 -234 -372 -440 -461 -169 -74 -438 -79 -588 -11 -35 15 -38 19
-33 47 4 17 9 76 12 132 10 165 -29 314 -122 457 -57 87 -197 233 -299 310
-265 202 -360 299 -390 401 -30 99 -15 114 29 30z m-2845 -175 c-43 -187 -48
-218 -60 -329 -7 -68 -10 -181 -6 -279 5 -172 -1 -187 -26 -61 -37 181 -31
363 18 548 22 83 83 227 92 218 2 -2 -6 -46 -18 -97z m-1912 30 c7 -7 9 -49 6
-128 -7 -146 7 -233 53 -329 68 -142 195 -236 359 -267 104 -20 124 -49 58
-84 -26 -13 -140 1 -185 24 -34 16 -34 16 -4 -43 56 -111 173 -220 310 -289
103 -52 202 -74 331 -75 115 -1 171 8 267 43 51 19 56 23 47 40 -5 11 -7 24
-4 29 3 6 1 10 -4 10 -6 0 -11 15 -11 33 1 27 2 29 11 14 6 -10 12 -28 13 -40
1 -13 5 -28 9 -34 13 -21 105 -233 102 -233 -2 0 -20 28 -41 63 -20 34 -37 63
-39 65 -2 2 -25 -8 -52 -22 -131 -66 -425 -74 -568 -15 -16 7 -35 13 -42 15
-23 4 -118 54 -153 79 -139 101 -233 207 -287 322 -18 39 -33 79 -33 89 0 9
-28 46 -62 83 -107 114 -154 223 -165 382 -11 179 33 319 84 268z m3739 -101
c112 -117 110 -115 89 -138 -18 -20 -18 -20 -39 3 -140 147 -148 156 -141 176
10 33 26 25 91 -41z m418 -42 c15 -37 38 -85 51 -104 14 -20 25 -42 25 -49 0
-7 -200 -214 -443 -460 l-444 -447 -89 86 -89 87 71 73 c40 40 220 224 401
408 182 184 363 370 403 413 41 42 77 74 80 70 4 -5 19 -39 34 -77z m-467 -66
l81 -85 -21 -25 c-14 -17 -21 -21 -24 -12 -3 7 -23 30 -45 50 -22 20 -58 58
-80 85 -34 40 -38 50 -27 63 6 8 18 14 24 12 7 -2 48 -41 92 -88z m1 -171 c-2
-5 -110 -116 -241 -247 l-238 -239 -64 66 c-71 74 -105 115 -105 128 0 4 90
98 200 208 181 181 202 198 214 183 14 -19 32 -25 21 -8 -3 6 -2 10 4 10 15 0
23 -18 11 -25 -10 -6 51 -85 72 -93 18 -8 20 30 2 44 -11 9 -12 12 -4 8 8 -4
-5 13 -29 38 -24 26 -49 44 -56 42 -7 -3 -16 -1 -20 5 -3 7 0 8 9 5 11 -4 16
0 16 12 0 9 8 26 17 37 18 19 20 17 106 -73 48 -50 87 -96 85 -101z m915 -260
c118 -86 280 -275 319 -371 12 -28 2 -21 -19 15 -47 78 -207 246 -378 396 -41
36 -44 40 -15 23 19 -12 61 -40 93 -63z m-1523 -172 l84 -88 -20 -20 -20 -20
-86 87 c-84 85 -86 88 -71 111 9 13 19 22 22 21 4 -2 44 -43 91 -91z m77 -314
c17 -16 52 -52 78 -80 l47 -53 -303 -300 c-225 -223 -317 -307 -354 -325 -27
-14 -69 -41 -93 -60 -26 -21 -55 -35 -71 -35 -36 0 -61 -18 -157 -112 -83 -82
-116 -96 -122 -52 -2 16 27 50 115 134 152 145 192 192 199 242 6 32 21 54 84
116 43 42 180 184 305 315 125 130 230 237 234 237 4 0 21 -12 38 -27z"/>
<path d="M5138 8655 c-3 -6 -9 -32 -12 -60 -14 -98 -45 -140 -120 -162 -31 -9
-48 -33 -25 -33 8 0 35 -15 61 -32 51 -35 66 -62 88 -157 l13 -55 17 67 c10
37 25 78 34 92 22 33 94 85 118 85 34 0 18 18 -31 35 -74 24 -95 57 -129 195
-4 19 -11 30 -14 25z"/>
<path d="M5598 7310 c-101 -10 -194 -28 -347 -69 -125 -33 -114 -34 -351 29
-99 27 -137 32 -270 35 l-155 5 80 -20 c162 -38 359 -119 520 -213 l60 -35
100 56 c131 74 336 156 457 184 54 13 98 25 98 28 0 9 -95 8 -192 0z"/>
<path d="M4943 6680 c-64 -12 -164 -51 -218 -87 -22 -14 -107 -76 -190 -137
-82 -61 -170 -121 -195 -134 -37 -19 -39 -22 -15 -17 55 12 144 52 303 138
231 125 309 147 520 147 189 0 325 -40 505 -149 157 -95 390 -192 252 -105
-33 20 -89 60 -125 89 -189 149 -281 206 -390 240 -65 20 -361 30 -447 15z"/>
<path d="M3383 5054 c-74 -37 -143 -148 -143 -230 0 -12 -6 -24 -12 -27 -17
-6 46 -33 108 -47 58 -13 130 0 190 35 100 59 118 176 37 252 -31 29 -41 33
-91 33 -31 0 -71 -8 -89 -16z"/>
<path d="M6723 5050 c-40 -24 -63 -67 -63 -120 0 -121 133 -205 280 -178 71
13 116 36 101 51 -6 6 -11 23 -11 38 0 35 -35 117 -63 148 -12 13 -42 37 -66
52 -55 36 -129 40 -178 9z"/>
<path d="M3096 3908 c3 -5 10 -6 15 -3 13 9 11 12 -6 12 -8 0 -12 -4 -9 -9z"/>
<path d="M3045 3809 c-4 -6 -5 -12 -2 -15 2 -3 7 2 10 11 7 17 1 20 -8 4z"/>
<path d="M2910 3750 c0 -5 5 -10 11 -10 5 0 7 5 4 10 -3 6 -8 10 -11 10 -2 0
-4 -4 -4 -10z"/>
<path d="M2950 3746 c0 -2 9 -6 20 -9 11 -3 18 -1 14 4 -5 9 -34 13 -34 5z"/>
<path d="M2930 3721 c0 -6 4 -13 10 -16 6 -3 7 1 4 9 -7 18 -14 21 -14 7z"/>
<path d="M2855 3709 c-4 -6 -4 -13 -1 -16 3 -4 6 -1 6 7 0 10 4 10 18 -1 15
-13 16 -12 3 4 -16 20 -18 20 -26 6z"/>
<path d="M2785 3681 c-3 -5 -2 -12 3 -15 5 -3 9 1 9 9 0 17 -3 19 -12 6z"/>
<path d="M2725 3641 c-3 -5 -2 -12 3 -15 5 -3 9 1 9 9 0 17 -3 19 -12 6z"/>
<path d="M2755 3620 c-3 -6 1 -7 9 -4 18 7 21 14 7 14 -6 0 -13 -4 -16 -10z"/>
<path d="M7244 3845 c-4 -9 -13 -14 -22 -13 -8 2 -17 -4 -19 -12 -3 -9 -1 -11
4 -5 11 13 56 18 48 5 -3 -6 1 -10 9 -10 21 0 21 16 0 24 -8 3 -12 10 -9 16 3
5 4 10 0 10 -3 0 -8 -7 -11 -15z"/>
<path d="M7335 3734 c9 -9 19 -13 23 -10 3 4 0 11 -8 16 -24 15 -33 11 -15 -6z"/>
<path d="M7545 3610 c-3 -5 -2 -10 4 -10 5 0 13 5 16 10 3 6 2 10 -4 10 -5 0
-13 -4 -16 -10z"/>
<path d="M7617 3569 c7 -7 15 -10 18 -7 3 3 -2 9 -12 12 -14 6 -15 5 -6 -5z"/>
<path d="M2965 3505 c11 -9 19 -18 18 -20 -6 -10 -3 -25 5 -25 20 0 4 44 -19
52 -23 8 -23 8 -4 -7z"/>
<path d="M2934 3474 c-4 -10 -9 -22 -10 -25 -2 -4 4 -13 14 -20 9 -7 14 -9 10
-5 -4 5 0 15 10 22 16 12 16 14 0 30 -16 17 -18 17 -24 -2z m21 -3 c3 -5 1
-12 -5 -16 -5 -3 -10 1 -10 9 0 18 6 21 15 7z"/>
<path d="M2860 3331 c0 -7 -5 -9 -12 -5 -7 5 -8 3 -3 -5 5 -9 10 -10 18 -2 6
6 8 14 4 18 -4 3 -7 1 -7 -6z"/>
</g>
</svg>
