<?xml version="1.0" standalone="no"?>
<!DOCTYPE svg PUBLIC "-//W3C//DTD SVG 20010904//EN"
 "http://www.w3.org/TR/2001/REC-SVG-20010904/DTD/svg10.dtd">
<svg version="1.0" xmlns="http://www.w3.org/2000/svg"
 width="1024.000000pt" height="1024.000000pt" viewBox="0 0 1024.000000 1024.000000"
 preserveAspectRatio="xMidYMid meet">

<g transform="translate(0.000000,1024.000000) scale(0.100000,-0.100000)"
fill="#000000" stroke="none">
<path d="M0 5120 l0 -5120 5120 0 5120 0 0 5120 0 5120 -5120 0 -5120 0 0
-5120z m5286 4239 c128 -61 152 -228 47 -326 -25 -24 -54 -43 -64 -43 -23 0
-25 -33 -5 -108 17 -63 52 -125 97 -170 121 -122 306 -85 389 79 l20 38 -25
43 c-47 82 -26 171 49 208 81 39 161 14 198 -60 48 -95 -12 -210 -109 -210
l-33 0 0 -70 c0 -232 191 -337 369 -203 47 35 51 42 40 70 -26 69 6 155 71
192 131 73 276 -68 210 -204 -36 -74 -100 -102 -178 -80 l-42 13 -31 -42 c-59
-79 -139 -256 -150 -331 -6 -38 -12 -71 -13 -72 -2 -2 -32 9 -67 23 -134 54
-313 98 -444 109 l-70 5 70 -20 c160 -47 264 -84 349 -124 111 -52 156 -88
156 -124 -1 -61 -22 -65 -127 -24 -252 98 -641 164 -863 146 -52 -4 -100 -7
-107 -5 -7 1 -74 -7 -151 -19 -183 -26 -368 -78 -501 -140 -60 -28 -115 -48
-124 -44 -25 9 -32 61 -12 90 28 43 142 109 330 190 55 24 91 44 80 44 -41 0
-232 -49 -301 -78 l-72 -29 -7 51 c-10 78 -63 201 -130 300 -47 70 -65 90 -80
87 -75 -13 -121 -11 -153 8 -71 45 -95 145 -49 211 37 55 72 75 132 75 67 0
101 -23 134 -89 22 -45 23 -53 12 -94 -11 -42 -10 -47 11 -69 37 -39 135 -83
187 -83 66 0 142 46 178 107 22 39 28 61 31 133 l4 87 -42 6 c-137 18 -161
220 -34 273 79 33 152 4 186 -73 24 -54 20 -102 -13 -147 l-22 -29 20 -41 c29
-59 68 -102 120 -133 150 -87 345 51 378 267 l7 45 -54 35 c-73 48 -101 103
-95 184 13 145 162 229 293 165z m1833 -877 c-115 -182 -345 -452 -385 -452
-29 0 -37 25 -19 60 55 106 435 516 443 477 2 -9 -16 -48 -39 -85z m-3847 13
c94 -82 260 -260 332 -356 51 -68 57 -102 17 -107 -28 -4 -91 54 -205 188
-136 160 -265 350 -238 350 5 0 47 -34 94 -75z m4118 -434 c0 -34 -321 -294
-390 -316 -28 -9 -44 7 -35 34 12 40 182 166 336 250 78 43 89 47 89 32z
m-4325 -37 c80 -40 240 -146 303 -199 49 -43 58 -85 18 -85 -43 0 -289 175
-386 274 -56 58 -36 61 65 10z m1974 -71 c1 18 21 24 21 6 0 -8 5 -8 15 1 12
10 15 10 15 -1 1 -9 5 -8 15 5 13 17 15 17 15 3 0 -13 7 -15 35 -12 29 4 33 2
29 -13 -5 -14 -4 -15 5 -2 16 22 14 28 -11 33 -20 4 -19 4 5 6 21 1 27 -3 27
-20 0 -11 5 -17 10 -14 6 4 8 11 5 16 -6 9 -5 10 33 14 21 2 23 -1 19 -23 l-5
-26 20 25 c11 13 17 18 13 12 -3 -7 -2 -13 4 -13 5 0 12 6 14 13 4 9 8 8 16
-3 10 -13 11 -13 11 0 1 8 5 5 11 -8 5 -13 14 -20 20 -17 6 4 8 13 5 21 -3 8
1 14 9 14 8 0 15 -6 16 -12 0 -10 2 -10 6 0 6 16 23 6 23 -15 0 -10 -6 -13
-16 -9 -8 3 -12 2 -9 -3 9 -15 44 -9 38 6 -3 7 0 13 6 13 6 0 11 -4 11 -10 0
-5 7 -10 15 -10 8 0 15 -6 15 -12 0 -7 5 -5 11 5 5 9 14 17 19 17 6 0 11 -8
11 -17 1 -17 2 -17 6 0 2 9 9 17 15 17 6 0 8 -8 5 -19 -3 -14 0 -17 14 -14 11
3 19 12 19 20 0 10 6 8 22 -7 24 -22 38 -26 38 -9 0 5 4 8 9 5 14 -9 10 -56
-5 -56 -8 0 -14 -5 -14 -10 0 -6 6 -10 13 -9 26 3 48 -1 43 -9 -3 -5 1 -9 9
-9 9 0 7 8 -8 29 -17 23 -19 30 -7 41 9 8 11 8 6 0 -3 -6 -2 -14 4 -18 5 -3
10 -1 10 4 0 6 5 11 10 11 6 0 10 -10 10 -23 0 -22 29 -73 30 -51 0 5 -5 15
-10 20 -8 8 -5 15 7 25 16 13 17 12 4 -3 -7 -10 -10 -18 -6 -18 5 0 17 8 28
18 18 15 20 15 14 1 -9 -26 14 -42 30 -21 13 15 13 15 8 -5 -7 -27 -2 -29 19
-7 14 14 16 14 16 0 0 -10 -19 -21 -57 -31 -179 -49 -314 -92 -443 -142 -80
-31 -156 -58 -170 -60 -16 -3 -73 14 -150 45 -143 56 -239 89 -394 132 -60 16
-112 33 -115 37 -3 3 2 3 12 0 11 -4 16 -3 12 3 -3 6 1 13 9 16 9 3 14 9 12
13 -2 3 7 7 21 7 19 2 24 -2 20 -16 -6 -24 20 -15 51 17 12 13 27 21 33 18 6
-4 13 2 16 14 3 12 10 21 15 21 6 0 4 8 -3 18 -12 15 -12 16 1 5 16 -12 32
-12 63 2 12 5 25 1 39 -11 12 -11 18 -13 13 -5 -6 11 -4 13 8 8 9 -3 19 -2 22
3 4 6 0 10 -7 11 -10 0 -10 2 0 6 6 2 9 10 6 15 -4 7 -2 8 4 4 7 -4 12 -13 12
-21 0 -17 40 -8 47 12 3 8 13 11 24 8 12 -4 19 -2 19 7 0 10 3 9 10 -2 8 -12
10 -12 11 5 1 17 2 16 9 -5 5 -17 8 -19 9 -7z m-182 -9 c-3 -3 -12 -4 -19 -1
-8 3 -5 6 6 6 11 1 17 -2 13 -5z m-57 -14 c0 -5 -7 -7 -15 -4 -8 4 -15 8 -15
10 0 2 7 4 15 4 8 0 15 -4 15 -10z m-76 -16 c5 -14 4 -15 -9 -4 -17 14 -19 20
-6 20 5 0 12 -7 15 -16z m-14 -24 c11 -7 11 -10 2 -10 -7 0 -24 -12 -37 -26
-25 -27 -25 -27 -25 -5 0 14 8 25 20 28 11 3 17 9 14 14 -7 12 7 11 26 -1z
m1051 -13 c-10 -9 -11 -8 -5 6 3 10 9 15 12 12 3 -3 0 -11 -7 -18z m-1191 -47
c0 -5 -10 -10 -22 -10 -19 0 -20 2 -8 10 19 13 30 13 30 0z m1340 -4 c0 -3 -4
-8 -10 -11 -5 -3 -10 -1 -10 4 0 6 5 11 10 11 6 0 10 -2 10 -4z m-1550 -201
c184 -25 399 -90 670 -205 222 -94 188 -91 318 -26 199 100 411 176 603 217
151 33 407 33 532 1 165 -41 286 -100 408 -198 135 -108 262 -304 309 -477 31
-113 30 -115 -70 -144 -160 -45 -319 -134 -634 -353 -479 -334 -1031 -572
-1786 -769 -330 -86 -819 -160 -985 -149 l-50 3 -85 127 c-93 137 -165 268
-236 423 -25 55 -50 109 -56 120 -9 16 -5 24 28 53 56 48 167 100 252 117 120
25 219 -3 293 -82 52 -56 69 -88 83 -156 l13 -62 12 40 c32 113 -20 240 -124
301 -229 134 -560 11 -808 -299 -196 -246 -315 -508 -391 -862 -66 -306 -74
-674 -20 -1000 83 -499 338 -981 677 -1276 215 -188 499 -328 786 -390 122
-26 380 -36 513 -20 136 16 143 21 58 42 -101 26 -155 56 -208 114 -110 123
-292 439 -380 660 -148 374 -229 771 -254 1243 -15 300 3 579 47 723 4 13 28
17 123 23 510 29 1080 162 1620 378 l153 61 57 -18 c77 -24 467 -179 627 -250
334 -147 731 -360 986 -527 320 -211 563 -463 679 -703 90 -186 116 -318 107
-529 -11 -246 -73 -409 -263 -690 -33 -48 -195 -206 -262 -256 -284 -208 -641
-300 -956 -245 -232 41 -417 172 -513 364 l-37 76 -62 -122 c-101 -201 -214
-360 -360 -508 -112 -113 -184 -173 -255 -214 -65 -36 -106 -39 -138 -10 -34
32 -25 61 78 270 187 379 274 755 256 1104 -16 323 -86 608 -210 855 -94 188
-248 380 -293 366 -60 -19 -227 -256 -304 -430 -134 -304 -184 -561 -175 -916
9 -381 79 -635 287 -1050 74 -146 78 -163 46 -195 -15 -15 -37 -25 -54 -25
-31 0 -123 52 -187 105 -124 104 -122 97 -41 151 28 18 59 40 69 47 19 15 23
52 7 62 -5 3 -10 2 -10 -3 0 -14 -179 -69 -290 -89 -128 -23 -453 -23 -598 0
-681 108 -1274 497 -1642 1076 -63 100 -165 311 -208 431 -86 237 -123 465
-123 750 0 310 54 556 180 825 250 530 725 943 1235 1073 255 65 502 11 641
-140 89 -96 120 -193 95 -296 -14 -59 -68 -128 -117 -148 -18 -8 -56 -14 -86
-14 -86 0 -105 -38 -34 -70 118 -54 254 5 313 135 78 170 3 399 -175 529 -102
75 -204 113 -366 136 -98 14 -233 -5 -366 -50 -48 -17 -92 -30 -99 -30 -20 0
-7 217 19 315 44 167 134 319 259 436 222 208 520 292 872 244z m-1885 -122
c45 -162 75 -221 146 -289 51 -48 110 -82 198 -114 34 -13 64 -26 66 -30 7
-12 -14 -25 -83 -50 -68 -25 -164 -86 -200 -128 -61 -70 -86 -124 -123 -262
-20 -74 -33 -99 -45 -88 -3 4 -17 50 -30 104 -55 216 -143 318 -332 385 -42
14 -78 31 -80 37 -1 5 21 18 50 27 106 35 182 78 238 134 64 64 93 120 121
235 24 92 25 96 44 96 9 0 21 -22 30 -57z m5439 -55 c21 -84 65 -181 100 -219
39 -45 104 -86 177 -114 38 -15 69 -32 69 -40 0 -7 -21 -20 -47 -30 -27 -9
-78 -35 -115 -57 -71 -41 -127 -108 -160 -193 -14 -36 -19 -40 -56 -43 l-40
-3 -31 68 c-52 111 -146 191 -273 232 -21 7 -38 18 -38 25 0 6 37 29 83 49
144 65 217 148 251 287 34 135 53 144 80 38z m-261 -767 c155 -40 311 -129
436 -247 350 -330 358 -893 17 -1212 -110 -103 -232 -152 -376 -152 -116 0
-232 38 -245 80 -9 29 -1 36 58 56 124 41 214 127 283 269 68 140 79 194 79
380 0 186 -17 263 -88 399 -92 178 -266 286 -455 286 -81 0 -187 -25 -257 -59
-66 -33 -143 -87 -110 -77 60 17 116 26 164 26 l53 0 -7 -37 c-36 -204 -229
-598 -406 -829 l-39 -51 -121 59 c-174 84 -435 198 -571 249 -65 24 -118 47
-118 50 0 3 23 16 52 30 169 78 395 232 663 453 94 77 200 159 237 183 130 84
274 142 405 163 86 13 256 4 346 -19z m-153 -693 c44 -171 82 -223 203 -278
37 -16 67 -35 67 -40 0 -5 -30 -24 -67 -40 -109 -50 -150 -97 -193 -223 -37
-108 -43 -107 -79 19 -27 92 -72 151 -147 191 -33 17 -71 33 -86 37 -16 3 -28
10 -28 15 0 5 29 23 65 40 124 58 168 108 201 231 27 102 47 116 64 48z
m-5138 -3638 c13 -5 32 -16 42 -24 16 -13 18 -20 8 -41 -12 -26 -49 -34 -69
-14 -6 6 -28 9 -49 7 -31 -2 -39 -7 -39 -23 0 -16 13 -24 62 -40 102 -33 135
-85 102 -159 -24 -52 -134 -73 -205 -40 -49 23 -59 39 -46 69 14 31 24 31 80
4 52 -26 97 -18 97 16 0 16 -14 24 -62 40 -80 26 -113 57 -113 105 0 44 23 78
64 96 37 16 95 18 128 4z m499 -13 c33 -18 44 -30 44 -47 0 -36 -29 -48 -64
-27 -36 21 -83 22 -121 2 -59 -31 -69 -104 -20 -153 40 -40 70 -44 130 -16
l50 23 20 -21 c29 -32 25 -43 -30 -77 -47 -28 -129 -28 -187 0 -107 52 -126
206 -35 292 54 51 142 61 213 24z m572 -3 c32 -23 34 -48 5 -68 -20 -14 -24
-14 -46 0 -13 9 -39 14 -60 12 -29 -2 -37 -7 -37 -23 0 -16 13 -24 62 -40 81
-26 113 -57 113 -107 0 -28 -8 -46 -29 -70 -28 -32 -32 -33 -104 -33 -61 0
-81 4 -104 21 -33 24 -41 55 -19 73 13 11 25 9 68 -9 43 -17 58 -20 81 -11 48
19 31 43 -48 68 -80 26 -105 50 -105 102 0 72 57 114 146 108 29 -2 61 -11 77
-23z m4236 12 c15 -8 34 -22 41 -31 11 -14 10 -19 -8 -37 -19 -20 -24 -20 -60
-9 -52 17 -87 12 -87 -14 0 -16 13 -24 62 -40 81 -26 113 -56 113 -107 0 -28
-8 -46 -29 -70 -28 -32 -32 -33 -104 -33 -83 0 -129 22 -135 63 -6 37 32 47
85 21 35 -17 52 -20 72 -13 49 17 33 43 -47 74 -41 16 -80 37 -88 47 -18 25
-17 84 2 112 33 47 127 66 183 37z m468 -12 c39 -29 50 -73 29 -115 -15 -29
-15 -34 -1 -49 22 -24 28 -80 13 -110 -22 -42 -72 -60 -169 -60 -64 0 -90 4
-99 15 -16 19 -14 313 2 333 9 10 34 13 104 10 75 -2 98 -7 121 -24z m-989
-126 c39 -39 -11 -74 -90 -63 l-48 7 0 -64 c0 -74 -8 -91 -41 -86 -23 3 -24 6
-27 97 -1 52 -1 100 2 108 7 17 186 19 204 1z m-3103 -68 c38 -42 -31 -67
-150 -55 -79 9 -105 27 -79 56 15 16 32 19 114 19 84 0 99 -3 115 -20z m2500
4 c15 -11 17 -18 9 -31 -15 -24 -48 -30 -146 -23 -99 6 -122 18 -93 50 16 17
30 20 114 20 69 -1 102 -5 116 -16z m-3380 -495 c59 -15 129 -77 151 -134 40
-106 -3 -216 -105 -267 -49 -25 -65 -28 -156 -28 -65 0 -105 4 -113 12 -9 9
-12 69 -12 210 0 177 2 198 18 207 23 14 162 14 217 0z m813 -1 c17 -17 15
-54 -4 -72 -12 -13 -38 -16 -120 -16 l-104 0 0 -35 0 -35 79 0 c104 0 111 -3
111 -50 l0 -39 -55 -6 c-31 -4 -74 -5 -95 -1 l-40 6 0 -40 0 -40 105 0 c92 0
108 -3 125 -20 24 -24 25 -38 3 -62 -14 -16 -33 -18 -163 -18 -125 0 -150 3
-161 17 -11 12 -14 59 -14 203 0 144 3 191 14 203 11 14 36 17 160 17 101 0
151 -4 159 -12z m423 2 c16 -9 144 -163 192 -232 15 -22 16 -16 16 98 1 130 6
144 53 144 44 0 49 -22 46 -232 l-3 -193 -29 -13 c-20 -10 -34 -11 -51 -4 -12
6 -64 67 -116 136 l-94 126 -3 -117 c-2 -106 -4 -120 -23 -135 -26 -22 -43
-23 -63 -2 -14 13 -16 47 -16 213 0 140 3 200 12 209 15 15 53 16 79 2z m941
-7 c43 -39 4 -83 -74 -83 l-48 0 0 -159 c0 -154 -1 -160 -22 -175 -28 -20 -43
-20 -62 0 -13 13 -16 43 -16 175 l0 159 -51 0 c-65 0 -89 13 -89 48 0 49 11
52 184 52 134 0 162 -3 178 -17z m376 5 c9 -9 12 -70 12 -211 0 -179 -2 -201
-17 -213 -24 -18 -43 -17 -65 3 -16 14 -18 35 -18 205 0 111 4 197 10 209 12
22 59 26 78 7z m414 -5 c16 -14 18 -35 18 -205 0 -175 -1 -189 -20 -208 -31
-31 -56 -25 -79 18 -14 27 -4 380 12 400 13 17 47 15 69 -5z m525 5 c66 -28
79 -60 40 -96 l-24 -22 -44 20 c-56 25 -71 25 -100 0 -23 -19 -24 -20 -5 -35
11 -8 44 -22 75 -31 31 -9 68 -22 83 -30 56 -29 76 -120 39 -180 -52 -85 -252
-83 -308 2 -16 24 -15 26 10 52 26 26 27 26 56 9 39 -23 112 -32 140 -18 47
26 17 52 -101 87 -139 42 -144 203 -8 247 29 10 119 7 147 -5z m713 -8 c11
-11 20 -24 20 -30 0 -5 -9 -19 -20 -30 -15 -15 -33 -20 -74 -20 l-55 0 2 -161
c2 -148 1 -162 -17 -175 -27 -19 -42 -18 -66 6 -18 18 -20 33 -20 175 l0 155
-48 0 c-27 0 -57 7 -70 16 -26 18 -29 59 -4 73 9 6 86 11 175 11 144 0 159 -2
177 -20z"/>
<path d="M5240 7956 c0 -8 4 -17 9 -21 6 -3 9 4 8 15 -1 23 -17 28 -17 6z"/>
<path d="M4820 7904 c0 -8 5 -12 10 -9 6 3 10 1 10 -6 0 -7 2 -10 5 -7 8 7 -5
38 -16 38 -5 0 -9 -7 -9 -16z"/>
<path d="M4930 7916 c0 -2 7 -9 15 -16 13 -11 14 -10 9 4 -5 14 -24 23 -24 12z"/>
<path d="M4755 7891 c-11 -11 -3 -18 20 -18 14 0 25 5 25 13 0 12 -35 16 -45
5z"/>
<path d="M4915 7890 c-3 -5 -1 -10 4 -10 6 0 11 5 11 10 0 6 -2 10 -4 10 -3 0
-8 -4 -11 -10z"/>
<path d="M5590 7890 c0 -5 5 -10 11 -10 5 0 7 5 4 10 -3 6 -8 10 -11 10 -2 0
-4 -4 -4 -10z"/>
<path d="M5629 7868 c-12 -23 -12 -23 10 -4 23 21 26 26 11 26 -5 0 -15 -10
-21 -22z"/>
<path d="M4775 7850 c3 -5 8 -10 11 -10 2 0 4 5 4 10 0 6 -5 10 -11 10 -5 0
-7 -4 -4 -10z"/>
<path d="M5796 7815 c4 -8 11 -15 16 -15 6 0 5 6 -2 15 -7 8 -14 15 -16 15 -2
0 -1 -7 2 -15z"/>
<path d="M5705 7790 c4 -6 11 -8 16 -5 14 9 11 15 -7 15 -8 0 -12 -5 -9 -10z"/>
<path d="M4240 7351 l-85 -6 90 -18 c85 -17 291 -84 590 -191 72 -25 163 -58
204 -73 l74 -26 -29 -15 c-94 -47 -229 -150 -315 -240 -145 -151 -195 -263
-187 -421 7 -139 75 -262 192 -345 103 -74 153 -90 281 -90 102 0 118 3 220
38 61 21 132 48 158 60 l49 21 -119 1 c-175 1 -276 27 -389 101 -110 73 -152
178 -120 304 42 161 188 314 451 472 125 74 483 244 712 337 73 30 131 55 130
56 -5 5 -299 -48 -442 -80 -330 -73 -383 -73 -705 4 -242 57 -500 105 -605
112 -38 3 -108 2 -155 -1z"/>
<path d="M5675 5583 c-39 -12 -59 -13 -90 -5 -53 14 -35 1 93 -68 325 -174
402 -217 525 -292 234 -142 374 -245 386 -281 17 -53 34 -316 27 -412 -11
-152 -36 -353 -61 -501 -41 -236 -167 -640 -254 -812 -31 -61 -31 -63 -15 -95
32 -63 122 -173 175 -213 151 -116 328 -157 521 -120 93 18 144 38 240 94 173
101 309 263 392 465 57 138 71 220 70 402 -1 140 -5 173 -28 259 -85 313 -312
573 -821 935 -323 230 -462 321 -712 464 -145 83 -371 198 -388 196 -5 -1 -32
-8 -60 -16z m1259 -1555 c73 -246 195 -369 456 -461 81 -29 90 -51 28 -67
-159 -41 -261 -94 -348 -180 -64 -65 -104 -134 -140 -245 -37 -112 -49 -110
-93 18 -62 179 -123 262 -250 337 -31 19 -57 41 -57 50 0 8 7 48 17 88 17 71
19 75 70 109 105 69 172 169 217 325 33 112 36 118 55 118 13 0 24 -23 45 -92z"/>
<path d="M7980 2249 c0 -30 0 -30 51 -27 37 2 55 8 63 21 15 24 -7 37 -66 37
-47 0 -48 -1 -48 -31z"/>
<path d="M7980 2116 l0 -36 59 0 c49 0 59 3 64 19 8 31 -5 40 -66 47 l-57 7 0
-37z"/>
<path d="M3030 1440 l0 -120 51 0 c118 0 180 97 121 188 -22 34 -64 52 -122
52 l-50 0 0 -120z"/>
</g>
</svg>
