<?xml version="1.0" standalone="no"?>
<!DOCTYPE svg PUBLIC "-//W3C//DTD SVG 20010904//EN"
 "http://www.w3.org/TR/2001/REC-SVG-20010904/DTD/svg10.dtd">
<svg version="1.0" xmlns="http://www.w3.org/2000/svg"
 width="1024.000000pt" height="1024.000000pt" viewBox="0 0 1024.000000 1024.000000"
 preserveAspectRatio="xMidYMid meet">

<g transform="translate(0.000000,1024.000000) scale(0.100000,-0.100000)"
fill="#00a6ff" stroke="none">
<path d="M5074 9146 c-72 -32 -107 -146 -65 -214 63 -99 212 -94 270 8 26 48
27 90 0 141 -34 67 -130 97 -205 65z"/>
<path d="M4023 8820 c-105 -47 -120 -185 -31 -275 l41 -40 -12 -130 c-27 -298
-77 -456 -202 -642 -27 -39 -53 -74 -59 -78 -6 -3 -22 9 -37 27 -14 18 -66 72
-114 121 -80 80 -90 87 -126 86 -81 -1 -81 0 -8 -147 79 -161 200 -435 245
-555 l33 -87 33 25 c162 124 343 208 559 261 249 61 698 94 1015 75 484 -29
787 -110 1045 -279 39 -26 82 -54 96 -63 l27 -17 17 46 c42 112 134 322 227
516 79 164 97 210 87 217 -21 13 -77 11 -107 -5 -26 -14 -106 -94 -189 -189
l-41 -47 -63 97 c-109 168 -156 309 -184 548 -23 202 -22 218 23 263 96 96 65
249 -56 282 -124 33 -225 -76 -188 -202 14 -49 14 -51 -8 -72 -13 -11 -86 -93
-163 -181 -77 -88 -174 -192 -214 -232 -78 -76 -159 -141 -159 -126 0 4 29 44
65 88 36 44 65 83 65 87 0 5 -19 32 -43 61 -115 141 -201 284 -276 455 -27 62
-51 115 -53 117 -2 2 -22 -2 -43 -10 -53 -19 -114 -19 -160 1 -20 8 -38 14
-40 12 -2 -2 -26 -55 -55 -117 -83 -183 -163 -316 -274 -455 l-55 -69 65 -83
c36 -46 61 -84 57 -84 -18 0 -183 162 -322 315 -249 275 -230 249 -214 286 32
77 4 160 -67 197 -54 27 -82 27 -137 2z m1163 -345 l29 -90 40 -6 c85 -13 175
-34 175 -40 0 -4 -44 -17 -97 -30 -54 -13 -100 -24 -102 -26 -6 -4 65 -149
106 -217 104 -173 200 -224 313 -166 64 33 133 115 423 503 44 59 81 106 82
105 2 -2 -3 -37 -11 -78 -18 -104 -36 -436 -32 -605 l3 -140 125 -65 c131 -69
232 -133 264 -169 16 -18 17 -24 6 -51 -7 -17 -20 -30 -30 -30 -9 0 -45 18
-79 40 -35 23 -124 72 -200 110 -157 80 -162 83 -186 130 -19 36 -19 83 0 420
7 123 13 126 -100 -41 -38 -57 -99 -133 -135 -170 -53 -54 -76 -70 -119 -83
-72 -21 -119 -20 -185 4 -104 39 -190 141 -286 338 -24 51 -47 92 -50 92 -3 0
-18 -31 -33 -69 -40 -96 -106 -207 -161 -268 -113 -125 -273 -144 -399 -48
-45 34 -143 156 -238 295 -43 63 -44 64 -47 35 -1 -16 3 -106 10 -200 16 -204
10 -305 -18 -336 -10 -12 -75 -50 -144 -84 -69 -35 -161 -86 -205 -114 -82
-53 -103 -59 -123 -39 -24 24 -14 65 24 96 38 31 209 131 307 178 l57 28 0
196 c0 212 -14 483 -30 569 -6 30 -8 56 -7 58 2 2 86 -106 188 -239 260 -344
306 -389 393 -390 111 -2 197 91 318 345 32 68 40 60 -97 92 l-90 21 87 22
c48 12 98 22 112 22 26 0 44 35 82 166 19 67 16 71 60 -71z m165 -845 c113
-11 242 -32 329 -52 53 -12 53 -13 20 -16 -19 -2 -39 -10 -43 -18 -12 -22
-1009 -21 -1027 1 -7 8 -21 15 -31 15 -10 0 -20 4 -23 8 -3 5 30 14 72 21 134
21 266 40 307 44 89 8 299 6 396 -3z m-731 -90 c0 -5 -2 -10 -4 -10 -3 0 -8 5
-11 10 -3 6 -1 10 4 10 6 0 11 -4 11 -10z"/>
<path d="M3310 8278 c-59 -31 -82 -65 -88 -131 -11 -139 117 -228 237 -165 53
27 81 75 81 136 0 50 -10 74 -54 121 l-31 35 30 -18 c50 -31 84 -67 110 -120
28 -56 31 -102 11 -168 l-13 -46 46 -35 c25 -19 57 -47 70 -61 14 -14 28 -26
31 -26 13 0 60 121 60 153 0 59 -124 215 -223 280 -56 37 -141 67 -192 67 -17
0 -51 -10 -75 -22z"/>
<path d="M6815 8282 c-33 -10 -83 -33 -109 -52 -106 -72 -226 -220 -226 -277
0 -27 49 -153 60 -153 4 0 15 9 26 21 14 16 88 73 122 95 1 1 -5 29 -14 63
-15 52 -15 69 -5 115 13 59 63 126 112 151 37 20 49 19 21 -1 -30 -21 -62 -86
-62 -126 0 -50 39 -118 80 -140 109 -59 269 55 246 175 -21 112 -125 165 -251
129z"/>
<path d="M2797 8113 c-16 -15 -4 -49 44 -119 54 -80 71 -93 94 -74 24 20 18
40 -35 123 -39 60 -54 77 -73 77 -13 0 -27 -3 -30 -7z"/>
<path d="M7371 8042 c-58 -89 -64 -118 -26 -128 31 -8 22 -17 89 85 45 68 54
87 45 102 -5 10 -20 19 -33 19 -18 0 -35 -18 -75 -78z"/>
<path d="M2432 7908 c-22 -22 -12 -56 31 -104 49 -56 355 -429 389 -475 25
-33 63 -37 82 -7 13 21 9 26 -225 314 -251 307 -246 303 -277 272z"/>
<path d="M7787 7897 c-28 -30 -92 -106 -209 -248 -273 -332 -257 -310 -228
-339 11 -11 26 -17 34 -14 7 3 44 42 82 87 38 45 136 162 219 261 82 98 156
188 164 200 17 27 10 50 -19 66 -17 9 -24 7 -43 -13z"/>
<path d="M2993 7803 c-27 -10 -11 -54 52 -147 36 -52 70 -98 75 -101 15 -10
50 14 50 34 0 21 -101 176 -132 204 -21 18 -25 19 -45 10z"/>
<path d="M7166 7699 c-67 -101 -75 -129 -39 -143 8 -4 22 -1 30 5 14 12 115
156 134 191 13 24 -4 48 -36 48 -17 0 -37 -23 -89 -101z"/>
<path d="M2127 7558 c-35 -19 -20 -54 51 -117 148 -131 476 -401 487 -401 19
0 48 38 42 54 -3 8 -47 50 -98 93 -51 43 -170 144 -263 224 -94 80 -178 148
-187 151 -8 3 -23 2 -32 -4z"/>
<path d="M7959 7439 c-409 -343 -405 -339 -396 -363 3 -8 15 -19 26 -25 17 -9
35 2 133 82 202 164 427 358 437 375 6 10 6 23 0 34 -20 38 -54 20 -200 -103z"/>
<path d="M4850 7340 c-138 -13 -304 -38 -390 -59 l-75 -19 66 -1 c166 -3 373
-57 557 -147 l133 -65 122 60 c194 95 356 139 547 150 l115 6 -120 23 c-66 13
-172 30 -235 38 -139 18 -588 26 -720 14z"/>
<path d="M1873 7209 c-33 -34 1 -69 216 -224 46 -33 137 -99 202 -147 154
-113 152 -112 181 -88 18 15 21 22 12 37 -18 31 -547 424 -579 430 -11 2 -26
-1 -32 -8z"/>
<path d="M8065 7011 c-288 -215 -311 -237 -270 -268 14 -9 23 -9 39 -1 35 19
300 210 524 378 29 22 52 48 52 58 0 24 -19 42 -44 41 -12 0 -147 -94 -301
-208z"/>
<path d="M4274 7159 c-99 -9 -238 -54 -324 -105 -244 -142 -378 -449 -341
-779 26 -231 70 -357 247 -710 161 -322 166 -341 193 -736 49 -688 131 -1113
299 -1544 44 -115 162 -346 206 -406 103 -140 273 -83 306 102 5 30 17 196 25
369 33 641 67 912 151 1208 36 127 85 257 103 275 12 12 32 -32 80 -172 60
-175 99 -373 130 -656 35 -314 48 -499 57 -790 6 -226 18 -297 59 -351 69 -91
192 -81 268 23 105 144 244 468 321 753 102 376 148 705 192 1375 12 181 38
260 188 560 197 393 240 539 241 805 0 131 -4 168 -23 240 -56 205 -185 367
-362 454 -224 109 -439 117 -711 26 -164 -55 -259 -111 -511 -303 -207 -157
-265 -196 -377 -252 -97 -49 -271 -109 -346 -121 -97 -14 -13 -53 133 -61 213
-13 437 65 641 221 273 210 331 251 411 291 348 175 696 122 870 -130 97 -141
123 -371 70 -622 -30 -144 -64 -233 -166 -443 -174 -354 -203 -449 -229 -740
-50 -553 -76 -754 -130 -1005 -78 -358 -195 -682 -326 -899 l-18 -29 -6 29
c-4 16 -9 36 -11 44 -2 9 -8 159 -14 335 -10 350 -20 490 -51 725 -60 463
-187 834 -312 910 -105 64 -205 -31 -295 -280 -118 -329 -172 -713 -202 -1450
-10 -242 -15 -300 -30 -300 -13 0 -109 184 -153 296 -167 414 -245 799 -307
1499 -36 405 -56 483 -208 795 -127 262 -148 313 -183 446 -40 153 -52 387
-25 494 49 195 178 338 364 402 57 20 86 23 192 22 105 -1 139 -5 213 -27 130
-40 297 -127 297 -156 0 -10 6 -9 28 5 51 33 162 125 162 134 0 14 -275 145
-365 174 -160 51 -290 68 -421 55z"/>
<path d="M1705 6945 c-30 -29 -32 -64 -5 -93 26 -28 50 -28 84 -1 34 27 36 81
4 103 -32 22 -55 20 -83 -9z"/>
<path d="M8480 6950 c-11 -11 -20 -31 -20 -45 0 -28 40 -75 63 -75 28 0 67 41
67 70 0 19 -9 36 -26 49 -33 26 -58 27 -84 1z"/>
<path d="M1947 6829 c-37 -21 -7 -63 77 -108 47 -24 72 -23 83 5 12 32 -127
121 -160 103z"/>
<path d="M8290 6832 c-8 -3 -41 -23 -73 -44 -45 -31 -57 -44 -55 -61 2 -12 11
-23 21 -25 27 -5 157 76 157 99 0 21 -28 39 -50 31z"/>
<path d="M1584 6535 c-15 -23 -15 -27 0 -50 9 -14 22 -26 29 -26 56 -6 89 48
51 85 -24 24 -61 20 -80 -9z"/>
<path d="M8606 6538 c-22 -31 -20 -43 10 -67 21 -16 30 -18 50 -9 33 15 42 53
19 78 -24 26 -60 25 -79 -2z"/>
<path d="M7485 6403 c-237 -38 -443 -147 -630 -337 -204 -205 -340 -454 -401
-731 -25 -115 -23 -324 4 -426 37 -137 109 -257 213 -354 107 -100 252 -172
604 -300 261 -95 448 -179 554 -250 107 -70 233 -209 280 -308 103 -213 92
-462 -31 -699 -168 -325 -499 -608 -1123 -963 -75 -43 -105 -77 -105 -120 0
-25 8 -43 26 -61 33 -34 59 -29 206 37 886 400 1294 792 1384 1329 20 121 15
288 -11 415 -49 232 -187 457 -377 609 -162 131 -321 212 -688 351 -381 144
-491 218 -576 387 -46 92 -64 173 -64 298 0 189 62 367 188 536 131 176 294
294 492 355 104 32 264 33 365 2 191 -60 321 -197 360 -378 18 -88 18 -122 0
-210 -20 -95 -55 -163 -116 -222 -76 -75 -128 -98 -219 -97 -41 0 -94 4 -117
9 -54 10 -73 -4 -73 -54 0 -71 84 -132 207 -151 172 -27 356 53 468 203 54 72
71 101 96 174 31 90 42 197 30 293 -40 313 -234 541 -546 640 -57 18 -99 23
-220 25 -82 2 -163 1 -180 -2z"/>
<path d="M3880 6274 c0 -53 26 -207 46 -274 23 -79 72 -193 157 -370 121 -250
153 -354 193 -610 l24 -155 -5 130 c-12 285 -51 433 -187 720 -111 235 -163
365 -194 487 -15 56 -28 105 -30 107 -2 2 -4 -13 -4 -35z"/>
<path d="M1446 6245 c-39 -40 -21 -55 131 -114 152 -58 180 -62 189 -27 3 14
3 29 0 35 -6 8 -220 96 -282 115 -14 4 -28 1 -38 -9z"/>
<path d="M8663 6207 c-145 -57 -174 -77 -157 -105 19 -29 41 -26 173 23 126
48 161 67 161 91 0 14 -27 44 -38 43 -4 0 -67 -24 -139 -52z"/>
<path d="M2380 6226 c-256 -47 -449 -187 -552 -401 -68 -142 -85 -287 -49
-427 45 -174 160 -320 315 -400 111 -57 192 -71 234 -42 36 25 28 60 -20 91
-119 76 -175 146 -226 281 -22 58 -25 83 -26 187 0 107 3 127 27 188 72 183
230 323 417 368 79 19 241 17 325 -5 94 -24 256 -102 332 -160 35 -26 70 -46
79 -44 9 2 26 15 36 29 16 21 18 31 9 47 -25 48 -284 193 -429 241 -156 53
-340 71 -472 47z"/>
<path d="M6371 6183 c-17 -77 -66 -200 -141 -358 -198 -415 -242 -568 -239
-840 l1 -100 14 100 c33 247 73 380 186 620 94 200 139 312 167 417 19 74 38
218 29 218 -3 0 -11 -26 -17 -57z"/>
<path d="M8725 5944 c-22 -8 -41 -14 -42 -14 -2 0 -3 -12 -3 -26 0 -25 2 -26
40 -21 47 6 70 22 70 47 0 26 -20 30 -65 14z"/>
<path d="M1477 5943 c-17 -16 -5 -42 24 -52 45 -15 69 -14 76 6 12 32 -74 72
-100 46z"/>
<path d="M3335 5781 c-305 -49 -558 -227 -725 -509 -53 -91 -100 -222 -100
-285 0 -38 5 -53 26 -74 22 -22 31 -25 70 -19 92 12 157 66 266 221 183 259
369 403 610 471 51 15 99 32 107 37 44 36 29 107 -29 137 -45 23 -151 33 -225
21z"/>
<path d="M1405 5710 c-10 -32 13 -51 54 -48 29 2 37 8 39 25 6 40 -81 60 -93
23z"/>
<path d="M8774 5720 c-47 -19 -40 -60 10 -60 45 0 74 23 60 47 -13 21 -40 26
-70 13z"/>
<path d="M7459 5655 c-173 -63 -278 -262 -248 -470 25 -181 152 -351 328 -440
200 -100 420 -96 393 7 -6 26 -27 34 -102 41 -139 13 -253 72 -329 171 -60 78
-85 152 -85 256 0 159 73 260 186 260 34 0 52 -7 78 -30 37 -31 68 -37 103
-19 29 16 37 28 37 64 0 61 -65 130 -149 160 -53 18 -163 18 -212 0z"/>
<path d="M1377 5494 c-4 -4 -7 -17 -7 -30 0 -27 42 -40 96 -29 31 5 35 9 32
33 -3 25 -7 27 -58 30 -31 2 -59 0 -63 -4z"/>
<path d="M8700 5481 c-8 -16 -6 -23 12 -35 30 -21 112 -21 132 0 35 34 8 54
-71 54 -51 0 -64 -3 -73 -19z"/>
<path d="M1482 5252 c-19 -3 -23 -9 -20 -30 l3 -27 121 -3 c101 -2 123 0 134
14 10 11 11 20 3 32 -8 14 -28 17 -114 17 -57 1 -114 -1 -127 -3z"/>
<path d="M8456 5244 c-19 -19 -20 -26 -4 -42 8 -8 58 -12 160 -12 135 0 148 2
158 19 7 15 6 23 -6 35 -23 23 -285 23 -308 0z"/>
<path d="M3662 5115 c-11 -14 -23 -45 -27 -68 -12 -70 -31 -106 -68 -123 -32
-15 -37 -15 -71 1 -45 22 -66 59 -66 119 0 44 -16 66 -49 66 -21 0 -51 -64
-51 -109 0 -84 56 -158 143 -190 73 -28 193 -6 253 46 98 84 87 283 -15 283
-20 0 -36 -9 -49 -25z"/>
<path d="M1363 5119 c-39 -14 -49 -60 -20 -96 14 -19 62 -16 80 5 41 46 -3
112 -60 91z"/>
<path d="M8821 5111 c-26 -26 -27 -62 -3 -84 41 -38 110 -1 97 51 -8 34 -13
39 -47 47 -19 5 -32 1 -47 -14z"/>
<path d="M1620 4778 c-162 -17 -305 -34 -317 -39 -28 -10 -31 -54 -5 -68 11
-6 62 -4 142 5 69 7 212 22 317 33 106 11 197 22 203 26 17 11 11 54 -9 65
-11 5 -23 10 -28 9 -4 -1 -141 -15 -303 -31z"/>
<path d="M8306 4794 c-20 -20 -20 -38 -1 -54 9 -7 73 -19 143 -26 233 -23 437
-45 472 -50 70 -11 92 66 23 80 -23 4 -254 29 -570 61 -39 4 -55 1 -67 -11z"/>
<path d="M2517 4764 c-12 -12 -8 -52 13 -133 88 -344 363 -637 707 -751 325
-107 606 13 608 260 0 90 -20 152 -68 207 -98 111 -265 125 -359 31 -50 -50
-66 -104 -44 -146 25 -48 51 -42 81 18 28 56 45 70 85 70 70 0 101 -65 75
-156 -39 -134 -173 -190 -362 -150 -122 26 -227 83 -329 179 -139 130 -222
284 -264 492 l-16 80 -60 3 c-33 2 -63 0 -67 -4z"/>
<path d="M1615 4513 c-183 -32 -217 -49 -179 -87 18 -18 11 -19 219 20 137 26
163 40 144 75 -12 23 -10 23 -184 -8z"/>
<path d="M8457 4533 c-14 -13 -7 -51 11 -58 22 -8 311 -65 334 -65 22 0 34 38
17 56 -8 7 -83 27 -167 44 -160 31 -184 34 -195 23z"/>
<path d="M1621 4280 c-128 -43 -237 -84 -242 -91 -14 -22 -11 -37 11 -52 17
-12 46 -4 251 65 211 71 269 96 269 119 0 12 -30 39 -43 38 -7 0 -117 -35
-246 -79z"/>
<path d="M8359 4334 c-9 -11 -10 -20 -2 -32 12 -19 490 -183 511 -175 26 11
34 41 14 61 -23 23 -446 162 -493 162 -9 0 -22 -7 -30 -16z"/>
<path d="M2426 4301 c-16 -11 -41 -39 -56 -63 -148 -242 -173 -686 -59 -1044
115 -359 331 -625 624 -765 247 -118 510 -136 770 -52 144 46 258 118 373 234
110 111 222 292 222 361 0 30 -40 68 -72 68 -11 0 -56 -35 -101 -78 -97 -91
-160 -138 -242 -180 -340 -170 -735 -82 -960 212 -182 240 -275 552 -275 930
-1 237 -27 348 -90 381 -40 21 -99 19 -134 -4z"/>
<path d="M1825 4116 c-155 -62 -160 -65 -160 -92 0 -22 5 -30 22 -32 26 -4
317 114 335 135 14 17 0 47 -23 50 -8 1 -86 -26 -174 -61z"/>
<path d="M8447 4103 c-4 -3 -7 -16 -7 -28 0 -15 16 -30 54 -54 66 -40 109 -40
114 -1 3 23 -4 29 -55 52 -70 32 -97 40 -106 31z"/>
<path d="M1746 3821 c-38 -42 23 -72 64 -31 11 11 17 26 14 35 -8 21 -57 19
-78 -4z"/>
<path d="M6878 3825 c-301 -57 -535 -243 -603 -479 -24 -81 -17 -204 14 -266
48 -93 125 -150 206 -150 79 0 125 36 125 98 0 31 -26 60 -78 86 -74 38 -93
135 -47 235 32 68 147 183 235 234 226 131 498 114 615 -38 119 -157 88 -363
-82 -545 -109 -116 -241 -201 -421 -271 -124 -48 -718 -223 -1152 -339 -108
-29 -160 -48 -173 -63 -17 -20 -126 -53 -408 -123 l-105 -27 -54 41 c-128 97
-329 171 -492 179 -118 7 -178 -7 -213 -49 -75 -89 27 -232 239 -338 126 -63
232 -91 351 -92 149 -1 211 29 224 109 l6 37 224 58 c222 57 223 58 250 39 14
-10 36 -21 48 -25 23 -7 492 120 1113 303 382 112 472 143 585 196 262 123
417 342 418 590 1 341 -266 594 -643 610 -68 3 -132 -1 -182 -10z m-2292
-1555 c159 -40 378 -170 361 -215 -7 -16 -17 -17 -105 -12 -109 6 -194 31
-330 98 -91 45 -180 118 -168 137 12 19 153 14 242 -8z"/>
<path d="M1554 3775 c-19 -29 -11 -60 18 -76 49 -26 100 40 63 81 -25 27 -61
25 -81 -5z"/>
<path d="M8640 3780 c-11 -11 -20 -27 -20 -35 0 -21 36 -55 59 -55 22 0 51 35
51 62 0 18 -36 48 -57 48 -7 0 -22 -9 -33 -20z"/>
<path d="M1808 3589 c-77 -41 -92 -56 -82 -84 9 -23 27 -19 125 30 77 39 90
49 87 68 -5 35 -45 31 -130 -14z"/>
<path d="M1816 3214 c-12 -12 -13 -20 -6 -35 12 -22 30 -25 48 -7 17 17 15 45
-4 52 -21 8 -20 8 -38 -10z"/>
<path d="M6595 1771 c-60 -27 -111 -54 -113 -60 -2 -7 3 -23 12 -36 l17 -25
41 21 c33 17 42 18 49 7 5 -7 9 -16 9 -20 0 -4 18 -46 39 -92 l39 -85 31 12
c17 6 31 17 31 23 0 15 -22 76 -54 147 l-26 58 37 16 c21 8 39 16 41 18 5 5
-28 65 -36 65 -4 0 -56 -22 -117 -49z"/>
<path d="M3725 1718 c-21 -51 -85 -239 -85 -249 0 -10 155 -59 187 -59 43 0
105 41 130 85 41 72 23 159 -41 203 -31 21 -137 62 -161 62 -7 0 -21 -19 -30
-42z m121 -69 c43 -26 57 -52 49 -88 -9 -41 -41 -71 -76 -71 -25 0 -61 12 -77
25 -7 6 51 155 61 155 5 0 25 -9 43 -21z"/>
<path d="M6170 1642 c-55 -24 -85 -73 -74 -118 9 -36 55 -64 106 -64 50 0 73
-12 65 -33 -8 -21 -42 -27 -73 -11 -14 8 -28 14 -30 14 -8 0 -34 -61 -30 -69
3 -5 26 -14 51 -20 61 -15 115 -1 149 40 62 73 1 159 -113 159 -44 0 -58 12
-36 30 9 8 28 10 49 6 29 -6 36 -3 51 20 17 26 17 28 -1 41 -19 14 -88 17
-114 5z"/>
<path d="M4211 1482 c-27 -109 -38 -182 -28 -182 1 0 54 -11 117 -24 63 -14
115 -24 116 -23 1 1 5 16 8 34 l7 32 -81 17 c-77 17 -81 19 -78 43 2 14 8 25
13 24 6 -1 38 -5 71 -8 60 -7 61 -7 66 19 6 32 -7 41 -75 50 -48 7 -69 28 -49
48 7 7 34 5 88 -6 42 -9 78 -15 79 -14 1 2 5 17 8 34 l6 31 -77 18 c-42 9 -93
21 -112 26 -19 5 -38 9 -42 9 -3 0 -20 -58 -37 -128z"/>
<path d="M5799 1553 l-26 -4 17 -97 c40 -224 38 -219 88 -206 28 8 28 27 -3
179 -14 66 -25 123 -25 128 0 7 -5 7 -51 0z"/>
<path d="M4735 1488 c-6 -35 -25 -241 -25 -270 0 -14 9 -18 39 -18 l38 0 7 80
c4 44 10 80 14 80 4 0 36 -39 71 -85 57 -76 67 -85 96 -85 l32 0 6 68 c4 37 7
106 7 155 l0 87 -34 0 -34 0 -7 -77 c-4 -43 -7 -82 -8 -86 -1 -4 -32 34 -67
85 -57 80 -70 93 -97 96 -29 3 -32 0 -38 -30z"/>
<path d="M5353 1503 l-73 -4 0 -39 0 -40 49 0 48 0 7 -72 c14 -152 15 -158 45
-158 49 0 51 7 41 125 -5 60 -8 111 -6 113 3 2 23 6 45 9 39 5 41 7 41 39 l0
34 -62 -2 c-35 -1 -96 -4 -135 -5z"/>
</g>
</svg>
