<?xml version="1.0" standalone="no"?>
<!DOCTYPE svg PUBLIC "-//W3C//DTD SVG 20010904//EN"
 "http://www.w3.org/TR/2001/REC-SVG-20010904/DTD/svg10.dtd">
<svg version="1.0" xmlns="http://www.w3.org/2000/svg"
 width="1024.000000pt" height="1024.000000pt" viewBox="0 0 1024.000000 1024.000000"
 preserveAspectRatio="xMidYMid meet">

<g transform="translate(0.000000,1024.000000) scale(0.100000,-0.100000)"
fill="#000000" stroke="none">
<path d="M5146 9280 c-106 -32 -131 -188 -41 -259 l26 -20 -30 -73 c-58 -137
-153 -267 -223 -304 -89 -47 -270 15 -429 147 -57 48 -59 52 -44 69 11 12 17
36 17 65 0 111 -113 181 -210 131 -92 -48 -97 -193 -9 -246 18 -11 44 -20 58
-20 22 0 31 -11 68 -87 111 -227 189 -473 237 -746 5 -30 10 -37 23 -32 38 16
213 57 301 71 131 21 431 21 575 0 61 -9 156 -28 213 -43 57 -14 105 -23 108
-20 3 3 14 49 25 103 52 257 179 611 261 727 13 18 28 27 46 27 34 0 86 31
107 64 70 107 -31 246 -155 213 -85 -22 -131 -112 -99 -194 10 -26 7 -31 -41
-75 -140 -130 -338 -198 -436 -152 -70 33 -153 148 -220 303 l-33 75 27 17
c96 58 89 199 -12 248 -45 22 -64 24 -110 11z m-41 -99 c-3 -12 -11 -21 -16
-21 -6 0 -8 3 -6 8 2 4 7 16 11 26 9 25 20 13 11 -13z m61 -45 c15 -12 17 -17
6 -28 -15 -15 -45 0 -50 26 -4 20 18 21 44 2z m-976 -193 c0 -20 -3 -24 -11
-16 -7 7 -9 19 -6 27 10 24 17 19 17 -11z m1820 0 c-1 -24 -2 -26 -11 -10 -5
9 -7 22 -4 27 10 17 15 11 15 -17z m-1750 -53 c0 -22 -20 -26 -38 -8 -19 19
-14 28 13 28 18 0 25 -5 25 -20z m1826 9 c3 -6 1 -16 -5 -22 -13 -13 -42 0
-49 21 -5 15 44 16 54 1z m-811 -483 c93 -71 91 -199 -5 -263 -67 -46 -170
-22 -217 49 -53 80 -22 182 72 237 33 19 110 7 150 -23z"/>
<path d="M4040 8335 c0 -33 -69 -84 -143 -106 -39 -11 -83 -24 -97 -28 -21 -6
-13 -11 50 -26 41 -10 89 -24 105 -33 38 -18 85 -62 85 -79 0 -17 20 -17 20 0
1 37 119 116 175 117 24 0 50 16 39 23 -5 2 -25 8 -44 12 -64 14 -124 51 -150
94 -26 42 -40 51 -40 26z"/>
<path d="M6250 8319 c-17 -41 -63 -74 -132 -96 -32 -10 -58 -21 -58 -25 0 -3
25 -14 55 -23 58 -19 130 -72 140 -106 6 -19 10 -17 42 21 40 47 81 66 176 85
38 7 71 15 73 18 3 3 -19 10 -48 16 -103 22 -146 41 -182 82 -20 21 -36 44
-36 49 0 21 -18 9 -30 -21z"/>
<path d="M4170 7727 c-243 -74 -401 -249 -467 -514 -27 -109 -24 -381 5 -498
46 -186 96 -316 242 -628 56 -120 100 -220 98 -222 -15 -14 -119 -68 -188 -98
-142 -61 -243 -81 -405 -81 -195 0 -294 30 -424 126 l-53 40 6 52 c25 189 112
478 202 665 75 157 151 268 266 388 86 89 98 106 98 137 0 38 -36 76 -72 76
-43 0 -250 -129 -395 -247 -466 -377 -780 -1097 -834 -1908 -19 -302 13 -721
81 -1050 143 -693 481 -1230 895 -1421 420 -194 925 -106 1355 237 89 71 173
154 282 279 109 127 116 143 73 185 -47 48 -62 40 -248 -149 -202 -203 -307
-280 -474 -345 -133 -52 -292 -65 -422 -36 -129 30 -270 127 -376 260 -255
321 -436 878 -495 1525 -13 151 -18 637 -7 810 7 113 34 403 40 423 2 5 25 -9
52 -32 67 -55 146 -96 240 -123 114 -33 333 -33 452 -1 171 47 348 150 534
310 108 94 307 293 589 592 333 352 557 496 827 533 416 57 646 -311 443 -711
-105 -208 -327 -372 -486 -359 -48 4 -94 27 -94 48 0 4 24 12 53 19 28 6 89
30 134 52 192 95 343 331 343 535 0 161 -85 263 -237 286 -88 14 -158 -1 -261
-52 -152 -77 -278 -195 -547 -515 -190 -227 -320 -366 -435 -470 -81 -73 -273
-209 -333 -236 l-27 -12 5 -166 c7 -200 30 -479 56 -686 24 -189 83 -459 136
-614 36 -106 130 -302 186 -387 55 -83 155 -195 211 -236 47 -34 113 -39 139
-10 24 26 21 63 -13 198 -122 478 -111 981 27 1311 63 150 155 283 196 283 50
0 171 -199 231 -381 53 -158 67 -257 73 -494 6 -247 -8 -393 -63 -640 -20 -88
-39 -176 -43 -196 -10 -45 1 -73 34 -95 42 -27 103 3 196 95 229 228 399 674
463 1211 15 121 18 166 31 370 3 52 8 106 11 119 5 23 3 23 -43 18 -26 -3 -84
-13 -128 -21 -165 -32 -332 -10 -443 57 -70 41 -155 133 -192 206 -127 252
-70 675 130 972 111 164 294 290 376 258 30 -11 24 -25 -19 -43 -18 -7 -55
-31 -83 -52 -132 -102 -235 -261 -302 -469 -43 -133 -55 -214 -50 -350 5 -143
28 -219 93 -311 97 -136 243 -185 445 -149 52 9 126 22 165 29 l70 12 11 70
c22 125 64 235 204 529 159 336 218 479 262 643 29 110 31 128 32 297 1 196
-8 249 -65 386 -79 193 -234 326 -437 374 -104 25 -293 16 -416 -20 -82 -24
-274 -93 -355 -128 l-35 -15 80 -40 c175 -88 320 -141 524 -192 148 -37 242
-69 335 -115 89 -44 194 -125 217 -168 11 -21 11 -21 -13 -4 -94 67 -213 106
-467 152 -359 65 -437 92 -842 295 -423 212 -506 240 -735 246 -135 4 -157 2
-225 -19z m95 -41 c-132 -41 -252 -124 -329 -227 -55 -73 -60 -66 -10 17 44
73 86 118 142 151 50 30 176 72 212 72 19 0 15 -3 -15 -13z m25 -487 c0 -7
-29 -38 -65 -71 -51 -47 -74 -79 -107 -146 -43 -85 -43 -86 -43 -196 0 -102 2
-116 29 -170 95 -194 315 -242 453 -100 50 52 78 133 69 198 -8 48 -58 141
-86 158 -44 28 -1 40 48 14 98 -51 149 -197 114 -323 -27 -92 -127 -196 -221
-228 -29 -10 -73 -14 -131 -12 -75 3 -97 8 -153 35 -255 126 -312 498 -110
722 50 56 120 108 161 120 38 12 42 11 42 -1z m459 -1811 c-114 -144 -188
-382 -206 -661 l-7 -112 -13 60 c-19 88 -17 311 3 393 35 142 113 271 202 337
26 19 50 35 55 35 4 0 -11 -24 -34 -52z"/>
<path d="M7559 6970 c-294 -37 -596 -226 -763 -479 -139 -210 -216 -465 -202
-671 24 -344 149 -607 561 -1180 308 -428 423 -601 527 -795 58 -109 120 -247
137 -310 92 -322 24 -636 -176 -814 -95 -85 -220 -130 -359 -131 -77 0 -203
32 -263 67 -69 40 -172 151 -214 231 -117 222 -113 541 10 786 56 114 102 175
231 308 111 115 122 130 122 163 0 20 -5 45 -10 56 -23 42 -107 63 -144 36
-16 -11 -30 -9 -100 20 -255 102 -544 34 -756 -178 -155 -156 -243 -355 -257
-584 -12 -203 74 -455 156 -455 60 0 62 31 14 160 -26 70 -27 85 -28 230 0
148 2 159 31 242 45 126 108 231 189 313 124 126 273 208 403 221 59 7 198
-11 207 -26 3 -5 -32 -34 -77 -66 -438 -309 -581 -884 -329 -1319 90 -154 194
-254 351 -334 179 -92 347 -123 551 -103 358 37 649 225 827 535 88 154 138
339 148 554 5 114 3 142 -20 254 -69 338 -189 558 -665 1222 -358 500 -480
700 -555 914 -54 155 -66 340 -30 481 88 348 453 530 756 376 115 -58 211
-198 244 -354 24 -111 14 -299 -20 -405 -49 -156 -164 -302 -311 -401 -93 -61
-108 -79 -108 -134 0 -152 222 -167 428 -29 192 129 336 373 379 646 20 125
20 187 1 296 -26 148 -70 252 -156 368 -154 209 -447 325 -730 289z"/>
<path d="M6460 5176 c0 -62 -30 -180 -55 -218 -28 -42 -78 -71 -177 -103 l-68
-21 81 -24 c140 -40 188 -95 212 -242 l13 -73 22 86 c13 47 32 99 42 117 29
47 92 88 167 107 38 9 75 19 83 22 8 3 -22 17 -67 32 -141 46 -190 106 -221
265 -17 88 -32 112 -32 52z"/>
<path d="M3686 5155 c-4 -22 -17 -76 -28 -119 -18 -66 -28 -87 -63 -122 -44
-44 -126 -78 -217 -90 -58 -8 -62 -19 -9 -28 87 -14 173 -48 213 -84 47 -42
95 -138 105 -207 3 -25 9 -45 12 -45 4 0 12 30 19 67 16 81 44 149 79 185 30
31 100 63 175 79 59 13 58 14 -51 45 -35 10 -80 30 -100 44 -46 34 -86 108
-102 190 -6 36 -15 79 -19 95 l-7 30 -7 -40z"/>
<path d="M3999 4437 c8 -11 -1 -22 -44 -52 -31 -21 -89 -73 -130 -116 -40 -44
-76 -79 -79 -79 -3 0 -6 12 -6 28 1 33 40 87 101 137 58 49 60 51 19 29 -19
-10 -65 -48 -102 -84 -63 -61 -68 -69 -68 -108 0 -67 46 -86 171 -69 52 7 59
6 87 -18 17 -14 43 -47 58 -73 15 -26 51 -89 81 -139 l54 -93 34 23 c19 12 35
25 35 30 0 4 -43 77 -96 162 -59 95 -96 165 -96 183 -1 15 11 58 26 94 43 109
32 158 -35 158 -17 0 -19 -3 -10 -13z"/>
<path d="M3914 4414 c-18 -14 -18 -14 6 -3 31 14 36 19 24 19 -6 0 -19 -7 -30
-16z"/>
<path d="M4193 3802 c-24 -15 -43 -32 -43 -38 0 -22 312 -462 340 -479 17 -10
12 2 -51 149 -73 168 -186 396 -197 396 -4 0 -26 -13 -49 -28z"/>
<path d="M4768 2449 c-16 -9 -18 -26 -18 -124 0 -133 2 -135 95 -135 65 0 95
13 95 39 0 24 -19 31 -81 31 -42 0 -49 3 -49 20 0 17 7 20 45 20 41 0 45 2 45
24 0 22 -5 25 -42 28 -36 2 -44 7 -46 25 -3 20 1 22 55 25 54 3 58 5 58 28 0
24 -3 25 -70 27 -38 2 -78 -2 -87 -8z"/>
<path d="M5070 2324 l0 -135 28 3 c27 3 27 4 27 75 l0 72 28 -35 c16 -19 32
-34 37 -34 4 0 17 15 29 33 l21 32 0 -35 c0 -19 3 -52 6 -72 5 -31 11 -38 29
-38 22 0 23 5 30 93 10 132 5 171 -21 175 -16 2 -29 -9 -53 -44 -17 -26 -31
-51 -31 -56 0 -21 -19 -3 -43 41 -26 47 -43 61 -73 61 -11 0 -14 -25 -14 -136z"/>
<path d="M5457 2453 c-4 -3 -7 -61 -7 -129 0 -102 3 -123 16 -128 28 -11 34
-6 34 27 0 64 8 76 54 79 34 2 42 7 44 26 3 20 0 22 -47 22 -47 0 -51 2 -51
25 0 23 4 24 62 27 52 2 63 6 66 22 2 10 -2 22 -10 27 -15 10 -152 12 -161 2z"/>
<path d="M5737 2454 c-4 -4 -7 -60 -7 -124 0 -89 3 -120 14 -129 9 -7 40 -11
78 -9 60 3 63 4 66 31 3 26 2 27 -47 27 l-50 0 -3 103 c-3 94 -5 102 -23 105
-12 2 -24 0 -28 -4z"/>
<path d="M4270 1870 l-145 -5 0 -250 0 -250 179 -3 c192 -3 196 -2 196 48 0
50 -11 55 -142 60 l-123 5 -3 43 -3 42 89 0 c100 0 125 11 125 55 0 44 -25 55
-125 55 l-89 0 3 48 3 47 127 3 127 3 6 29 c12 54 -14 84 -65 78 -8 -1 -80 -5
-160 -8z"/>
<path d="M4693 1872 l-33 -3 0 -249 c0 -243 1 -250 21 -261 12 -6 36 -8 55 -5
l33 7 3 152 3 152 65 -89 c175 -239 168 -232 223 -222 l37 7 0 250 c0 243 -1
250 -21 257 -11 4 -36 6 -55 4 l-34 -4 0 -149 c0 -82 -3 -149 -7 -149 -5 1
-35 42 -68 92 -136 208 -146 217 -222 210z"/>
<path d="M5799 1873 c-17 -3 -29 -12 -33 -26 -9 -34 -7 -460 2 -475 11 -16 73
-26 91 -13 12 8 15 53 15 254 1 135 -1 247 -4 250 -10 9 -45 14 -71 10z"/>
<path d="M6147 1866 c-98 -36 -134 -132 -84 -221 20 -36 30 -42 107 -68 121
-39 151 -79 84 -109 -22 -10 -36 -9 -88 10 -33 13 -68 25 -76 28 -10 3 -26 -8
-43 -33 l-28 -38 30 -27 c90 -81 268 -69 329 21 31 48 37 76 23 123 -17 57
-63 94 -152 123 -95 32 -113 49 -80 76 29 23 53 24 116 3 46 -16 49 -16 62 2
7 10 20 27 28 37 23 26 19 33 -32 58 -58 28 -144 34 -196 15z"/>
<path d="M6677 1873 l-168 -3 3 -48 c2 -32 8 -47 18 -49 8 -1 41 -5 73 -8 l57
-6 0 -195 0 -194 24 -11 c16 -8 34 -8 53 -2 l28 10 3 195 2 196 68 7 c73 8 82
14 82 62 0 34 -23 55 -57 51 -10 -1 -94 -4 -186 -5z"/>
<path d="M3520 1631 c0 -132 3 -246 6 -255 8 -22 189 -22 262 -1 115 34 181
120 181 235 1 80 -22 133 -78 187 -57 56 -117 73 -257 73 l-114 0 0 -239z
m287 88 c58 -57 63 -138 12 -203 -21 -27 -100 -56 -151 -56 l-28 0 0 149 c0
106 3 150 12 153 6 2 36 1 66 -3 42 -6 62 -15 89 -40z"/>
<path d="M5224 1846 c-9 -36 -1 -71 16 -73 8 -1 41 -5 73 -8 l57 -6 0 -168 c0
-93 3 -182 6 -199 7 -34 36 -47 79 -36 l25 6 0 198 0 197 38 7 c20 3 52 6 70
6 38 0 59 32 48 74 l-6 26 -200 0 -200 0 -6 -24z"/>
</g>
</svg>
